<?xml version="1.0" encoding="utf-8"?>
<!-- Generator: Adobe Illustrator 16.0.0, SVG Export Plug-In . SVG Version: 6.00 Build 0)  -->
<!DOCTYPE svg PUBLIC "-//W3C//DTD SVG 1.1//EN" "http://www.w3.org/Graphics/SVG/1.1/DTD/svg11.dtd">
<svg version="1.1" id="Layer_1" xmlns="http://www.w3.org/2000/svg" xmlns:xlink="http://www.w3.org/1999/xlink" x="0px" y="0px"
	 width="190px" height="120px" viewBox="0 0 190 120" enable-background="new 0 0 190 120" xml:space="preserve">
<g>
	<g>
		<polygon fill="#00AEEF" points="84.031,35.089 72.257,41.946 70.387,31.974 81.747,22.763 		"/>
		<polygon fill="#00AEEF" points="106.541,21.308 95.183,27.818 92.552,12.719 103.91,3.507 		"/>
		<polygon fill="#00AEEF" points="121.361,34.329 109.174,38.483 106.541,21.377 118.176,15.005 		"/>
		<polygon fill="#00AEEF" points="136.667,52.059 123.995,53.235 121.223,33.428 133.481,30.52 		"/>
		<polygon fill="#00AEEF" points="112.359,54.968 100.101,57.391 97.745,42.57 109.588,37.583 		"/>
		<polygon fill="#00AEEF" points="127.389,72.557 114.714,72.211 112.151,54.829 124.41,52.75 		"/>
		<polygon fill="#00AEEF" points="97.814,42.706 86.11,47.416 83.963,34.952 95.39,27.676 		"/>
		<polygon fill="#00AEEF" points="88.464,60.02 76.274,62.238 74.197,52.265 86.179,47.624 		"/>
		<polygon fill="#00AEEF" points="102.801,72.418 90.473,72.418 88.257,59.815 100.309,57.459 		"/>
		<polygon fill="#00AEEF" points="78.353,72.28 65.817,71.725 64.016,63.831 76.205,62.03 		"/>
		<polygon fill="#00AEEF" points="74.543,52.265 62.631,56.489 60.623,48.178 72.326,42.014 		"/>
		<polygon fill="#00AEEF" points="64.294,64.179 51.965,64.938 50.441,58.982 62.562,56.419 		"/>
	</g>
	<g>
		<path fill="#FFFFFF" d="M40.346,79.862h2.75v5.43h0.055c0.273-0.475,0.565-0.911,0.837-1.35l2.787-4.08h3.406l-4.061,5.227
			l4.28,7.049h-3.241l-3.006-5.3l-1.056,1.292v4.008h-2.75V79.862z"/>
		<path fill="#FFFFFF" d="M68.528,86.948h-4.517v2.913h5.044v2.276h-7.832V79.862h7.577v2.275h-4.79v2.552h4.517V86.948z"/>
		<path fill="#FFFFFF" d="M80.645,80.027c0.892-0.148,2.223-0.256,3.698-0.256c1.821,0,3.096,0.272,3.971,0.966
			c0.728,0.581,1.128,1.438,1.128,2.567c0,1.565-1.11,2.642-2.167,3.023v0.054c0.856,0.345,1.329,1.167,1.639,2.296
			c0.382,1.383,0.764,2.986,1.002,3.46h-2.842c-0.2-0.346-0.491-1.348-0.856-2.858c-0.327-1.529-0.855-1.95-1.985-1.967h-0.838
			v4.825h-2.75V80.027z M83.395,85.309h1.093c1.385,0,2.205-0.691,2.205-1.767c0-1.132-0.765-1.694-2.04-1.714
			c-0.674,0-1.057,0.056-1.258,0.093V85.309z"/>
		<path fill="#FFFFFF" d="M104.162,88.987l-0.872,3.15h-2.879l3.751-12.275h3.643l3.807,12.275h-2.985l-0.947-3.15H104.162z
			 M107.277,86.91l-0.764-2.604c-0.219-0.729-0.438-1.639-0.622-2.368h-0.034c-0.183,0.729-0.362,1.656-0.565,2.368l-0.728,2.604
			H107.277z"/>
		<path fill="#FFFFFF" d="M122.948,79.862h2.787v9.943h4.882v2.332h-7.669V79.862z"/>
		<path fill="#FFFFFF" d="M144.918,88.987l-0.873,3.15h-2.88l3.753-12.275h3.644l3.804,12.275h-2.985l-0.947-3.15H144.918z
			 M148.032,86.91l-0.766-2.604c-0.218-0.729-0.437-1.639-0.62-2.368h-0.034c-0.184,0.729-0.365,1.656-0.565,2.368l-0.728,2.604
			H148.032z"/>
	</g>
	<g>
		<g>
			<path fill="#FFFFFF" d="M2.505,112.878c0.968,0.497,2.457,0.994,3.992,0.994c1.653,0,2.527-0.685,2.527-1.727
				c0-0.991-0.755-1.56-2.668-2.243c-2.645-0.919-4.369-2.385-4.369-4.699c0-2.718,2.268-4.795,6.022-4.795
				c1.795,0,3.118,0.377,4.063,0.803l-0.803,2.905c-0.639-0.307-1.771-0.756-3.33-0.756c-1.56,0-2.315,0.709-2.315,1.533
				c0,1.018,0.898,1.467,2.952,2.245c2.811,1.039,4.133,2.503,4.133,4.748c0,2.669-2.054,4.937-6.424,4.937
				c-1.819,0-3.615-0.471-4.512-0.969L2.505,112.878z"/>
			<path fill="#FFFFFF" d="M17.947,103.691h-4.275v-3.023h12.236v3.023h-4.347v12.896h-3.614V103.691z"/>
			<path fill="#FFFFFF" d="M29.564,112.5l-1.134,4.087h-3.732l4.866-15.919h4.723l4.937,15.919h-3.873l-1.229-4.087H29.564z
				 M33.604,109.807l-0.993-3.377c-0.283-0.945-0.566-2.124-0.803-3.069h-0.047c-0.236,0.945-0.473,2.148-0.731,3.069l-0.946,3.377
				H33.604z"/>
			<path fill="#FFFFFF" d="M41.084,100.879c1.158-0.188,2.882-0.331,4.794-0.331c2.362,0,4.015,0.356,5.149,1.255
				c0.944,0.755,1.464,1.863,1.464,3.327c0,2.033-1.439,3.427-2.81,3.921v0.072c1.11,0.449,1.724,1.513,2.125,2.977
				c0.497,1.796,0.992,3.873,1.3,4.487h-3.686c-0.259-0.448-0.638-1.748-1.109-3.709c-0.426-1.984-1.11-2.526-2.575-2.55h-1.086
				v6.259h-3.566V100.879z M44.651,107.729h1.417c1.795,0,2.858-0.896,2.858-2.291c0-1.466-0.992-2.195-2.646-2.22
				c-0.874,0-1.37,0.069-1.629,0.118V107.729z"/>
			<path fill="#FFFFFF" d="M57.896,103.691h-4.276v-3.023h12.235v3.023H61.51v12.896h-3.613V103.691z"/>
			<path fill="#FFFFFF" d="M71.094,100.668v9.164c0,2.74,1.039,4.134,2.882,4.134c1.89,0,2.929-1.325,2.929-4.134v-9.164h3.59v8.927
				c0,4.914-2.48,7.253-6.637,7.253c-4.015,0-6.377-2.222-6.377-7.3v-8.88H71.094z"/>
			<path fill="#FFFFFF" d="M83.346,100.879c1.11-0.188,2.669-0.331,4.865-0.331c2.221,0,3.802,0.427,4.866,1.276
				c1.015,0.803,1.7,2.126,1.7,3.685c0,1.56-0.521,2.882-1.464,3.779c-1.228,1.157-3.047,1.678-5.173,1.678
				c-0.473,0-0.897-0.023-1.229-0.072v5.693h-3.566V100.879z M86.912,108.108c0.308,0.069,0.685,0.094,1.205,0.094
				c1.914,0,3.095-0.969,3.095-2.599c0-1.465-1.016-2.338-2.812-2.338c-0.732,0-1.228,0.07-1.488,0.143V108.108z"/>
			<path fill="#FFFFFF" d="M114.777,110.492c-0.071-1.911-0.144-4.226-0.144-6.542h-0.071c-0.496,2.031-1.154,4.298-1.772,6.165
				l-1.935,6.212h-2.81l-1.703-6.164c-0.519-1.866-1.061-4.135-1.438-6.213h-0.049c-0.095,2.149-0.164,4.606-0.284,6.59
				l-0.283,6.047h-3.329l1.016-15.919h4.795l1.559,5.313c0.496,1.843,0.994,3.825,1.346,5.693h0.072
				c0.449-1.843,0.991-3.946,1.513-5.717l1.7-5.29h4.698l0.873,15.919h-3.519L114.777,110.492z"/>
			<path fill="#FFFFFF" d="M124.643,100.668v15.919h-3.616v-15.919H124.643z"/>
			<path fill="#FFFFFF" d="M127.617,112.878c0.966,0.497,2.455,0.994,3.989,0.994c1.654,0,2.527-0.685,2.527-1.727
				c0-0.991-0.758-1.56-2.669-2.243c-2.647-0.919-4.369-2.385-4.369-4.699c0-2.718,2.266-4.795,6.023-4.795
				c1.795,0,3.116,0.377,4.063,0.803l-0.806,2.905c-0.637-0.307-1.768-0.756-3.329-0.756c-1.559,0-2.314,0.709-2.314,1.533
				c0,1.018,0.897,1.467,2.952,2.245c2.812,1.039,4.135,2.503,4.135,4.748c0,2.669-2.055,4.937-6.426,4.937
				c-1.821,0-3.614-0.471-4.513-0.969L127.617,112.878z"/>
			<path fill="#FFFFFF" d="M140.104,112.878c0.968,0.497,2.455,0.994,3.993,0.994c1.649,0,2.527-0.685,2.527-1.727
				c0-0.991-0.755-1.56-2.671-2.243c-2.646-0.919-4.369-2.385-4.369-4.699c0-2.718,2.266-4.795,6.023-4.795
				c1.795,0,3.115,0.377,4.061,0.803l-0.802,2.905c-0.637-0.307-1.771-0.756-3.331-0.756c-1.557,0-2.312,0.709-2.312,1.533
				c0,1.018,0.895,1.467,2.951,2.245c2.81,1.039,4.131,2.503,4.131,4.748c0,2.669-2.053,4.937-6.424,4.937
				c-1.816,0-3.614-0.471-4.509-0.969L140.104,112.878z"/>
			<path fill="#FFFFFF" d="M156.089,100.668v15.919h-3.614v-15.919H156.089z"/>
			<path fill="#FFFFFF" d="M173.517,108.46c0,5.222-3.164,8.388-7.818,8.388c-4.724,0-7.485-3.566-7.485-8.103
				c0-4.773,3.047-8.337,7.747-8.337C170.848,100.408,173.517,104.069,173.517,108.46z M162.015,108.675
				c0,3.115,1.462,5.314,3.871,5.314c2.438,0,3.827-2.314,3.827-5.408c0-2.859-1.369-5.315-3.848-5.315
				C163.431,103.266,162.015,105.58,162.015,108.675z"/>
			<path fill="#FFFFFF" d="M175.614,116.587v-15.919h4.204l3.306,5.833c0.945,1.677,1.891,3.662,2.6,5.456h0.071
				c-0.236-2.102-0.308-4.251-0.308-6.637v-4.652h3.306v15.919h-3.778l-3.403-6.142c-0.942-1.7-1.98-3.755-2.762-5.62l-0.069,0.022
				c0.095,2.104,0.14,4.347,0.14,6.942v4.797H175.614z"/>
		</g>
	</g>
</g>
</svg>
